<svg width="22" height="22" viewBox="0 0 22 22" fill="none" xmlns="http://www.w3.org/2000/svg">
<path d="M9.1507 16.1862C10.6906 16.1862 11.939 17.4137 11.939 18.9279C11.939 20.442 10.6907 21.6695 9.15072 21.6695C7.61077 21.6695 6.3624 20.442 6.3624 18.9279C6.3624 17.4137 7.61075 16.1862 9.1507 16.1862ZM9.1507 19.7853C9.63227 19.7853 10.0227 19.4014 10.0227 18.9279C10.0227 18.4544 9.63225 18.0705 9.1507 18.0705C8.66913 18.0705 8.27874 18.4544 8.27874 18.9279C8.27874 19.4014 8.66915 19.7853 9.1507 19.7853ZM17.3815 16.1862C18.9215 16.1862 20.1699 17.4137 20.1699 18.9279C20.1699 20.442 18.9215 21.6695 17.3815 21.6695C15.8416 21.6695 14.5932 20.442 14.5932 18.9279C14.5932 17.4137 15.8416 16.1862 17.3815 16.1862H17.3815ZM17.3815 19.7853C17.8631 19.7853 18.2535 19.4014 18.2535 18.9279C18.2535 18.4544 17.8631 18.0705 17.3815 18.0705C16.8999 18.0705 16.5095 18.4544 16.5095 18.9279C16.5095 19.4014 16.8999 19.7853 17.3815 19.7853ZM17.3623 18.0705H7.77976C5.98844 18.0705 4.5363 16.6427 4.5363 14.8813C4.5363 13.404 5.55789 12.1613 6.94437 11.7989L6.96697 11.7939L4.26011 3.1091C4.02401 2.39295 3.35167 1.88426 2.55847 1.88426H0V0H2.56324C4.20815 0 5.60191 1.05711 6.08012 2.51812L6.08739 2.54383V2.55325L9.52345 13.5765H7.78051C7.04759 13.5765 6.45342 14.1607 6.45342 14.8814C6.45342 15.602 7.04757 16.1863 7.78051 16.1863H17.3624L17.3623 18.0705ZM19.9341 13.5764H8.23079V11.6922H18.4892L20.0836 6.20881V5.48338H6.41026V3.59906H22V6.47261L19.9341 13.5764Z" fill="#1E1E1E"/>
</svg>
