<svg width="33" height="33" viewBox="0 0 33 33" fill="none" xmlns="http://www.w3.org/2000/svg">
<path d="M16.5 23.375C16.8896 23.375 17.2164 23.243 17.4804 22.979C17.7444 22.715 17.8759 22.3887 17.875 22C17.875 21.6104 17.743 21.2841 17.479 21.021C17.215 20.7579 16.8887 20.6259 16.5 20.625C16.1104 20.625 15.7841 20.757 15.521 21.021C15.2579 21.285 15.1259 21.6113 15.125 22C15.125 22.3896 15.257 22.7164 15.521 22.9804C15.785 23.2444 16.1113 23.3759 16.5 23.375ZM15.125 17.875H17.875V9.625H15.125L15.125 17.875ZM11.3437 28.875L4.125 21.6562L4.125 11.3438L11.3438 4.125L21.6562 4.125L28.875 11.3438L28.875 21.6563L21.6562 28.875L11.3437 28.875ZM12.5125 26.125L20.4875 26.125L26.125 20.4875L26.125 12.5125L20.4875 6.875L12.5125 6.875L6.875 12.5125L6.875 20.4875L12.5125 26.125Z" fill="#FFB92C"/>
</svg>
