<svg width="29" height="29" viewBox="0 0 29 29" fill="none" xmlns="http://www.w3.org/2000/svg">
<path d="M12.0833 25.375L16.9167 25.375C16.9167 26.7042 15.8292 27.7917 14.5 27.7917C13.1708 27.7917 12.0833 26.7042 12.0833 25.375ZM25.375 22.9584V24.1667L3.625 24.1667L3.625 22.9584L6.04167 20.5417L6.04167 13.2917C6.04167 9.54585 8.45833 6.28335 12.0833 5.19585V4.83335C12.0833 3.50419 13.1708 2.41669 14.5 2.41669C15.8292 2.41669 16.9167 3.50419 16.9167 4.83335V5.19585C20.5417 6.28335 22.9583 9.54585 22.9583 13.2917L22.9583 20.5417L25.375 22.9584ZM20.5417 13.2917C20.5417 9.90835 17.8833 7.25002 14.5 7.25002C11.1167 7.25002 8.45833 9.90835 8.45833 13.2917L8.45833 21.75L20.5417 21.75L20.5417 13.2917Z" fill="#FFB92C"/>
</svg>
