<svg width="26" height="26" viewBox="0 0 26 26" fill="none" xmlns="http://www.w3.org/2000/svg">
<path d="M10.8145 19.4209C12.6344 19.4209 14.1097 20.8937 14.1097 22.7104C14.1097 24.5272 12.6344 26 10.8145 26C8.99455 26 7.5192 24.5272 7.5192 22.7104C7.5192 20.8937 8.99452 19.4209 10.8145 19.4209ZM10.8145 23.7392C11.3836 23.7392 11.845 23.2786 11.845 22.7105C11.845 22.1423 11.3836 21.6818 10.8145 21.6818C10.2453 21.6818 9.78397 22.1423 9.78397 22.7105C9.78397 23.2786 10.2454 23.7392 10.8145 23.7392ZM20.5418 19.4209C22.3617 19.4209 23.8371 20.8937 23.8371 22.7104C23.8371 24.5272 22.3617 26 20.5418 26C18.7218 26 17.2465 24.5272 17.2465 22.7104C17.2465 20.8937 18.7218 19.4209 20.5418 19.4209H20.5418ZM20.5418 23.7392C21.1109 23.7392 21.5723 23.2786 21.5723 22.7105C21.5723 22.1423 21.1109 21.6818 20.5418 21.6818C19.9726 21.6818 19.5113 22.1423 19.5113 22.7105C19.5113 23.2786 19.9726 23.7392 20.5418 23.7392ZM20.5191 21.6818H9.19426C7.07724 21.6818 5.36108 19.9686 5.36108 17.8552C5.36108 16.0826 6.56842 14.5916 8.20698 14.1568L8.23369 14.1508L5.03467 3.73043C4.75565 2.87115 3.96107 2.26081 3.02364 2.26081H0V0H3.02929C4.97327 0 6.62043 1.26837 7.1856 3.02134L7.19419 3.05219V3.06349L11.255 16.2896H9.19515C8.32897 16.2896 7.62676 16.9906 7.62676 17.8553C7.62676 18.72 8.32894 19.4209 9.19515 19.4209H20.5192L20.5191 21.6818ZM23.5585 16.2895H9.7273V14.0287H21.8508L23.7352 7.44958V6.57919H7.57577V4.3183H26V7.7661L23.5585 16.2895Z" fill="#1E1E1E"/>
</svg>
