<svg width="24" height="24" viewBox="0 0 24 24" fill="none" xmlns="http://www.w3.org/2000/svg">
<path d="M14.7229 14.6667C14.7229 13.6669 12.251 12.8571 9.20179 12.8571M14.7229 14.6667C14.7229 15.6664 12.251 16.4762 9.20179 16.4762C6.15257 16.4762 3.68069 15.6664 3.68069 14.6667M14.7229 14.6667V19.1335C14.7229 20.164 12.251 21 9.20179 21C6.15257 21 3.68069 20.1649 3.68069 19.1335V14.6667M14.7229 14.6667C17.739 14.6667 20.244 13.7737 20.244 12.8571V3.80952M9.20179 12.8571C6.15257 12.8571 3.68069 13.6669 3.68069 14.6667M9.20179 12.8571C5.71719 12.8571 2.89197 11.9641 2.89197 11.0476V6.52381M9.20179 4.71429C5.71719 4.71429 2.89197 5.52405 2.89197 6.52381M2.89197 6.52381C2.89197 7.52357 5.71719 8.33333 9.20179 8.33333C9.20179 9.24986 11.7675 10.1429 14.7836 10.1429C17.7989 10.1429 20.244 9.24986 20.244 8.33333M20.244 3.80952C20.244 2.80976 17.7989 2 14.7836 2C11.7675 2 9.32325 2.80976 9.32325 3.80952M20.244 3.80952C20.244 4.80929 17.7989 5.61905 14.7836 5.61905C11.7683 5.61905 9.32325 4.80929 9.32325 3.80952M9.32325 3.80952V13.0073" stroke="#FFB92C" stroke-width="2"/>
</svg>
