<svg width="24" height="24" viewBox="0 0 24 24" fill="none" xmlns="http://www.w3.org/2000/svg">
<path d="M9.98258 17.927C11.6625 17.927 13.0244 19.2864 13.0244 20.9635C13.0244 22.6405 11.6625 24 9.9826 24C8.30266 24 6.9408 22.6405 6.9408 20.9635C6.9408 19.2864 8.30264 17.927 9.98258 17.927ZM9.98258 21.9131C10.5079 21.9131 10.9338 21.4879 10.9338 20.9635C10.9338 20.4391 10.5079 20.0139 9.98258 20.0139C9.45723 20.0139 9.03136 20.4391 9.03136 20.9635C9.03136 21.4879 9.45725 21.9131 9.98258 21.9131ZM18.9616 17.927C20.6416 17.927 22.0035 19.2864 22.0035 20.9635C22.0035 22.6405 20.6416 24 18.9616 24C17.2817 24 15.9198 22.6405 15.9198 20.9635C15.9198 19.2864 17.2817 17.927 18.9616 17.927H18.9616ZM18.9616 21.9131C19.487 21.9131 19.9129 21.4879 19.9129 20.9635C19.9129 20.4391 19.487 20.0139 18.9616 20.0139C18.4363 20.0139 18.0104 20.4391 18.0104 20.9635C18.0104 21.4879 18.4363 21.9131 18.9616 21.9131ZM18.9407 20.0139H8.48701C6.53284 20.0139 4.94869 18.4325 4.94869 16.4817C4.94869 14.8455 6.06316 13.4691 7.57568 13.0678L7.60033 13.0622L4.64739 3.44347C4.38983 2.6503 3.65637 2.0869 2.79105 2.0869H0V0H2.79627C4.59071 0 6.11117 1.1708 6.63286 2.78893L6.64079 2.81741V2.82784L10.3892 15.0366H8.48783C7.68828 15.0366 7.04009 15.6836 7.04009 16.4818C7.04009 17.28 7.68826 17.927 8.48783 17.927H18.9408L18.9407 20.0139ZM21.7463 15.0365H8.97905V12.9496H20.17L21.9094 6.87654V6.0731H6.99302V3.98612H24V7.16871L21.7463 15.0365Z" fill="#B6B6B6"/>
</svg>
