<svg width="16" height="18" viewBox="0 0 16 18" fill="none" xmlns="http://www.w3.org/2000/svg">
<path d="M11.4 11H10.6795L10.4242 10.73C11.3488 9.55402 11.857 8.0527 11.856 6.5C11.856 5.21442 11.5083 3.95772 10.857 2.8888C10.2056 1.81988 9.27975 0.986756 8.19655 0.494786C7.11335 0.00281635 5.92143 -0.125905 4.77151 0.124899C3.62159 0.375703 2.56532 0.994767 1.73627 1.90381C0.907228 2.81285 0.342641 3.97104 0.113908 5.23192C-0.114826 6.49279 0.00256851 7.79973 0.451245 8.98744C0.899921 10.1752 1.65973 11.1903 2.63458 11.9046C3.60944 12.6188 4.75556 13 5.928 13C7.39632 13 8.74608 12.41 9.78576 11.43L10.032 11.71V12.5L14.592 17.49L15.9509 16L11.4 11ZM5.928 11C3.65712 11 1.824 8.99 1.824 6.5C1.824 4.01 3.65712 2 5.928 2C8.19888 2 10.032 4.01 10.032 6.5C10.032 8.99 8.19888 11 5.928 11Z" fill="#FFB92C"/>
</svg>
